<svg width="143" height="103" viewBox="0 0 143 103" fill="none" xmlns="http://www.w3.org/2000/svg">
<rect x="1" y="23" width="141" height="57" rx="28.5" stroke="white" stroke-width="2"/>
<path d="M68.78 54.78C68.7933 54.7133 68.8 54.6067 68.8 54.46V52.4C68.7867 52.3333 68.78 52.2733 68.78 52.22C68.78 52.1667 68.7733 52.1133 68.76 52.06C68.76 52.0333 68.7533 52.02 68.74 52.02C68.74 51.9533 68.7333 51.9 68.72 51.86C68.7067 51.8067 68.6933 51.7533 68.68 51.7C68.6667 51.6733 68.66 51.66 68.66 51.66C68.6467 51.5667 68.6133 51.4733 68.56 51.38C68.56 51.3667 68.5533 51.36 68.54 51.36C68.54 51.3467 68.54 51.3267 68.54 51.3C68.5133 51.26 68.4733 51.1867 68.42 51.08C68.4067 51.0533 68.3867 51.0267 68.36 51C68.32 50.92 68.2733 50.8533 68.22 50.8C68.22 50.7867 68.1867 50.7467 68.12 50.68C68.0533 50.6133 68.0133 50.5733 68 50.56C67.9733 50.5333 67.9467 50.5133 67.92 50.5C67.8933 50.4733 67.8667 50.4467 67.84 50.42C67.8133 50.4067 67.7933 50.3933 67.78 50.38C67.78 50.3667 67.7667 50.3533 67.74 50.34C67.06 49.8333 66.0467 49.5933 64.7 49.62V49.6L62.52 49.62H62.02C61.9533 49.6333 61.8867 49.64 61.82 49.64C61.7533 49.64 61.6867 49.6467 61.62 49.66H61.58C61.18 49.7133 60.82 49.7933 60.5 49.9C60.4867 49.9 60.4733 49.9067 60.46 49.92C60.46 49.92 60.4533 49.92 60.44 49.92C60.3867 49.9467 60.34 49.9667 60.3 49.98C60.26 49.9933 60.2133 50.0133 60.16 50.04C60.1467 50.04 60.1333 50.0467 60.12 50.06C60.12 50.06 60.1133 50.06 60.1 50.06C59.9133 50.1667 59.74 50.28 59.58 50.4C59.42 50.5067 59.2867 50.6333 59.18 50.78L59.12 50.84C59.0933 50.8667 59.0667 50.9 59.04 50.94C59.0267 50.98 59.0067 51.0133 58.98 51.04C58.98 51.0533 58.9733 51.0667 58.96 51.08C58.96 51.08 58.96 51.0867 58.96 51.1C58.8267 51.3267 58.72 51.5933 58.64 51.9V51.96C58.6133 52.0933 58.6 52.1933 58.6 52.26C58.6 52.2867 58.5933 52.3133 58.58 52.34V54.7C58.58 54.7667 58.58 54.8267 58.58 54.88C58.5933 54.9333 58.6067 54.9933 58.62 55.06V55.1C58.6467 55.2333 58.6733 55.3333 58.7 55.4C58.7 55.4267 58.7067 55.4467 58.72 55.46C58.7333 55.5133 58.7467 55.56 58.76 55.6C58.7733 55.64 58.7933 55.6867 58.82 55.74C58.82 55.7533 58.82 55.7667 58.82 55.78C58.8333 55.78 58.84 55.7867 58.84 55.8L58.96 56.04C58.9733 56.0533 58.98 56.0667 58.98 56.08C58.9933 56.0933 59.0067 56.1067 59.02 56.12C59.0733 56.2 59.12 56.26 59.16 56.3C59.1733 56.3267 59.1867 56.3467 59.2 56.36C59.2133 56.3733 59.2267 56.3933 59.24 56.42L59.38 56.56C59.4067 56.5867 59.4333 56.6133 59.46 56.64C59.4867 56.6533 59.5133 56.6733 59.54 56.7C59.5667 56.7133 59.58 56.7267 59.58 56.74C59.5933 56.74 59.6133 56.7467 59.64 56.76C60.3067 57.28 61.32 57.5267 62.68 57.5H64.86C64.9267 57.5 64.9933 57.5 65.06 57.5C65.14 57.5 65.2133 57.4933 65.28 57.48H65.36C65.4267 57.48 65.4933 57.48 65.56 57.48C65.6267 57.4667 65.6933 57.46 65.76 57.46C65.76 57.4467 65.7733 57.44 65.8 57.44C66.2 57.4 66.56 57.32 66.88 57.2C66.9067 57.2 66.9267 57.1933 66.94 57.18C66.9933 57.1667 67.0867 57.1333 67.22 57.08C67.2333 57.0667 67.24 57.06 67.24 57.06C67.2533 57.06 67.2667 57.0533 67.28 57.04C67.6533 56.8667 67.96 56.6267 68.2 56.32C68.2267 56.32 68.24 56.3067 68.24 56.28C68.2667 56.24 68.2933 56.2067 68.32 56.18C68.3467 56.14 68.3733 56.1 68.4 56.06C68.4 56.0467 68.4 56.04 68.4 56.04C68.4133 56.04 68.42 56.0333 68.42 56.02C68.5533 55.78 68.6533 55.5067 68.72 55.2C68.7333 55.1867 68.74 55.1667 68.74 55.14C68.7667 55.0333 68.78 54.94 68.78 54.86V54.78ZM73.32 51.38V51.42L73.34 55.28C73.34 55.3867 73.3333 55.4867 73.32 55.58C73.32 55.6733 73.3133 55.7667 73.3 55.86V56.02C73.2867 56.1133 73.2733 56.2067 73.26 56.3C73.26 56.38 73.2467 56.4667 73.22 56.56C73.2067 56.5867 73.2 56.6267 73.2 56.68C73.1867 56.7733 73.1533 56.9 73.1 57.06C73.06 57.2067 73.0067 57.36 72.94 57.52C72.8867 57.68 72.8267 57.8333 72.76 57.98C72.6933 58.1133 72.6267 58.2133 72.56 58.28C72.52 58.3467 72.4733 58.4133 72.42 58.48C72.38 58.5467 72.34 58.6133 72.3 58.68C72.2733 58.7067 72.2533 58.7267 72.24 58.74C72.24 58.7533 72.2333 58.7667 72.22 58.78C71.78 59.3267 71.1933 59.78 70.46 60.14L70.34 60.2C70.2467 60.24 70.1533 60.28 70.06 60.32C69.98 60.3467 69.8933 60.3733 69.8 60.4C69.7467 60.4267 69.7133 60.44 69.7 60.44C69.3933 60.5467 69.0733 60.64 68.74 60.72C68.4067 60.7867 68.0533 60.8467 67.68 60.9H67.58C67.46 60.9267 67.34 60.94 67.22 60.94C67.1 60.94 66.98 60.9467 66.86 60.96C66.8333 60.96 66.8 60.9667 66.76 60.98C66.7333 60.98 66.7067 60.98 66.68 60.98C66.5467 60.98 66.4133 60.9867 66.28 61C66.16 61 66.0267 61 65.88 61H61.78C59.26 61.0267 57.3467 60.5667 56.04 59.62C56.0133 59.5933 55.98 59.5733 55.94 59.56C55.9133 59.5333 55.8867 59.5067 55.86 59.48C55.8067 59.4267 55.7533 59.38 55.7 59.34C55.66 59.3 55.6133 59.2533 55.56 59.2C55.5067 59.16 55.46 59.12 55.42 59.08C55.3933 59.04 55.36 59 55.32 58.96C55.2933 58.92 55.26 58.8867 55.22 58.86C55.1933 58.82 55.1667 58.78 55.14 58.74C55.0867 58.6867 55.04 58.6333 55 58.58C54.96 58.5267 54.92 58.4667 54.88 58.4C54.8533 58.3733 54.8333 58.3467 54.82 58.32C54.82 58.2933 54.8067 58.2667 54.78 58.24C54.7 58.0933 54.6267 57.9467 54.56 57.8C54.5333 57.7467 54.5133 57.7 54.5 57.66C54.46 57.58 54.42 57.5 54.38 57.42C54.3533 57.3267 54.3267 57.24 54.3 57.16C54.3 57.1333 54.2933 57.1133 54.28 57.1C54.28 57.0867 54.28 57.0733 54.28 57.06C54.2533 56.9533 54.2267 56.8533 54.2 56.76C54.1867 56.6667 54.1667 56.5667 54.14 56.46V56.38C54.1133 56.2733 54.0933 56.1667 54.08 56.06C54.08 55.9533 54.0733 55.84 54.06 55.72V55.7L54.04 51.84C54.04 51.7333 54.04 51.6333 54.04 51.54C54.0533 51.4467 54.06 51.3467 54.06 51.24C54.0733 51.2133 54.08 51.1667 54.08 51.1C54.0933 50.9933 54.1 50.9 54.1 50.82C54.1133 50.7267 54.1333 50.6333 54.16 50.54C54.16 50.5267 54.16 50.5133 54.16 50.5C54.1733 50.4867 54.18 50.4667 54.18 50.44C54.3 49.8933 54.4933 49.38 54.76 48.9C54.7867 48.8733 54.8 48.8467 54.8 48.82C54.8533 48.7533 54.9 48.6867 54.94 48.62C54.98 48.5533 55.0267 48.4867 55.08 48.42C55.1067 48.4067 55.1333 48.3733 55.16 48.32C55.3867 48.0533 55.6467 47.8067 55.94 47.58C56.2333 47.3533 56.56 47.1533 56.92 46.98L57.04 46.92C57.1333 46.88 57.22 46.8467 57.3 46.82C57.3933 46.78 57.4867 46.74 57.58 46.7C57.5933 46.7 57.6267 46.6867 57.68 46.66C57.9867 46.5533 58.3067 46.4667 58.64 46.4C58.9733 46.3333 59.3267 46.2733 59.7 46.22H59.8C59.92 46.1933 60.04 46.18 60.16 46.18C60.28 46.1667 60.4 46.1533 60.52 46.14H60.7C60.8333 46.1267 60.96 46.12 61.08 46.12C61.2133 46.12 61.3533 46.12 61.5 46.12H65.6C68.1333 46.08 70.04 46.54 71.32 47.5C71.36 47.5267 71.3933 47.5533 71.42 47.58C71.4467 47.5933 71.4733 47.6133 71.5 47.64C71.5667 47.68 71.62 47.7267 71.66 47.78C71.7133 47.82 71.7667 47.86 71.82 47.9C71.86 47.94 71.9 47.9867 71.94 48.04C71.98 48.08 72.02 48.12 72.06 48.16C72.1 48.2133 72.16 48.28 72.24 48.36C72.2933 48.4267 72.34 48.4867 72.38 48.54C72.42 48.5933 72.46 48.6533 72.5 48.72C72.5133 48.7467 72.5267 48.7733 72.54 48.8C72.5533 48.8267 72.5733 48.8533 72.6 48.88C72.64 48.9467 72.68 49.02 72.72 49.1C72.76 49.1667 72.7933 49.24 72.82 49.32L72.88 49.44C72.96 49.6267 73.02 49.8 73.06 49.96C73.0867 50.0133 73.1 50.0467 73.1 50.06C73.1533 50.2333 73.2 50.4333 73.24 50.66V50.72C73.2667 50.8267 73.28 50.94 73.28 51.06C73.2933 51.1667 73.3067 51.2733 73.32 51.38ZM93.6561 49.82C93.6694 49.82 93.6761 49.8867 93.6761 50.02C93.6761 50.14 93.6761 50.2733 93.6761 50.42C93.6761 50.6067 93.6761 50.8133 93.6761 51.04V51.36C93.6628 51.3867 93.6561 51.42 93.6561 51.46C93.6561 51.5 93.6494 51.5333 93.6361 51.56C93.6361 51.6267 93.6294 51.6933 93.6161 51.76C93.6161 51.8133 93.6094 51.8733 93.5961 51.94C93.5828 51.9667 93.5761 51.9933 93.5761 52.02C93.4961 52.42 93.3561 52.78 93.1561 53.1C93.1561 53.1133 93.1494 53.1267 93.1361 53.14C93.1361 53.14 93.1361 53.1467 93.1361 53.16C93.1094 53.2133 93.0761 53.2667 93.0361 53.32C93.0094 53.36 92.9761 53.4 92.9361 53.44C92.9228 53.4667 92.9028 53.4933 92.8761 53.52C92.5561 53.8933 92.1428 54.2133 91.6361 54.48C91.6094 54.48 91.5828 54.4933 91.5561 54.52C91.4894 54.5467 91.4228 54.5733 91.3561 54.6C91.3028 54.6133 91.2428 54.6333 91.1761 54.66C91.1628 54.6733 91.1361 54.68 91.0961 54.68C90.8828 54.76 90.6561 54.8267 90.4161 54.88C90.1894 54.9333 89.9428 54.9733 89.6761 55C89.6628 55 89.6494 55.0067 89.6361 55.02C89.6361 55.02 89.6294 55.02 89.6161 55.02C89.5228 55.0333 89.4361 55.04 89.3561 55.04C89.2761 55.04 89.1894 55.0467 89.0961 55.06H88.9561C88.8628 55.0733 88.7694 55.08 88.6761 55.08C88.5961 55.08 88.5094 55.08 88.4161 55.08H81.2561C81.0428 55.08 80.8161 55.1 80.5761 55.14C80.3361 55.18 80.1094 55.2467 79.8961 55.34C79.6961 55.4333 79.5228 55.5667 79.3761 55.74C79.2294 55.9 79.1428 56.1067 79.1161 56.36C79.1028 56.3867 79.0961 56.4267 79.0961 56.48V57.92H93.0761V61H75.0761V55.72H75.0961V55.64C75.0961 55.5867 75.1028 55.5467 75.1161 55.52C75.1161 55.4533 75.1161 55.3933 75.1161 55.34C75.1294 55.2733 75.1428 55.2067 75.1561 55.14C75.1694 55.1267 75.1761 55.1 75.1761 55.06C75.2561 54.66 75.3961 54.3 75.5961 53.98C75.5961 53.9667 75.5961 53.96 75.5961 53.96C75.6094 53.9467 75.6161 53.9333 75.6161 53.92C75.6694 53.84 75.7361 53.7467 75.8161 53.64C75.8428 53.6133 75.8628 53.5867 75.8761 53.56C76.1961 53.1733 76.6094 52.86 77.1161 52.62C77.1428 52.5933 77.1694 52.58 77.1961 52.58C77.2628 52.5533 77.3228 52.5267 77.3761 52.5C77.4428 52.4733 77.5094 52.4467 77.5761 52.42C77.5894 52.42 77.5961 52.42 77.5961 52.42C77.6094 52.4067 77.6294 52.4 77.6561 52.4C77.8694 52.3333 78.0894 52.2733 78.3161 52.22C78.5561 52.1533 78.8094 52.1067 79.0761 52.08H79.1361C79.2294 52.0667 79.3161 52.06 79.3961 52.06C79.4761 52.0467 79.5628 52.04 79.6561 52.04C79.6694 52.0267 79.7094 52.02 79.7761 52.02C79.8428 52.0067 79.9094 52 79.9761 52C80.0561 52 80.1294 52 80.1961 52C80.2628 52 80.3094 52 80.3361 52H87.7961C87.8228 52 87.8561 52 87.8961 52C87.9361 51.9867 87.9694 51.98 87.9961 51.98H88.0361C88.3428 51.94 88.6361 51.86 88.9161 51.74C89.1961 51.6067 89.4028 51.3867 89.5361 51.08C89.6028 50.8933 89.6294 50.7067 89.6161 50.52C89.6161 50.32 89.5628 50.1333 89.4561 49.96C89.3628 49.7867 89.2361 49.6467 89.0761 49.54C88.9161 49.4333 88.7428 49.3533 88.5561 49.3C88.3694 49.2467 88.1761 49.2133 87.9761 49.2C87.7894 49.1867 87.6028 49.18 87.4161 49.18H81.3361C80.6028 49.1667 80.0428 49.3 79.6561 49.58C79.6294 49.6067 79.6094 49.62 79.5961 49.62C79.5561 49.66 79.5228 49.6867 79.4961 49.7C79.4828 49.7133 79.4694 49.7267 79.4561 49.74C79.4561 49.7533 79.4494 49.7667 79.4361 49.78L79.3761 49.84C79.3628 49.8667 79.3494 49.8867 79.3361 49.9C79.3361 49.9 79.3294 49.9133 79.3161 49.94L79.2761 49.98C79.2628 50.02 79.2428 50.0667 79.2161 50.12C79.2028 50.1333 79.1961 50.1467 79.1961 50.16C79.1828 50.1867 79.1694 50.2133 79.1561 50.24C79.1561 50.2533 79.1494 50.2733 79.1361 50.3V50.34C79.1094 50.42 79.0961 50.4733 79.0961 50.5C79.0961 50.5133 79.0894 50.5267 79.0761 50.54C79.0761 50.62 79.0694 50.68 79.0561 50.72V51.16H75.0761V49.84L75.1361 49.36C75.1361 49.3333 75.1428 49.32 75.1561 49.32C75.1828 49.1333 75.2094 48.9933 75.2361 48.9C75.2494 48.8733 75.2561 48.8467 75.2561 48.82C75.2828 48.74 75.3094 48.66 75.3361 48.58C75.3628 48.5 75.3961 48.4267 75.4361 48.36C75.4628 48.3067 75.4894 48.26 75.5161 48.22C75.5428 48.1667 75.5694 48.1133 75.5961 48.06C75.6228 48.0067 75.6494 47.9667 75.6761 47.94C75.7028 47.8867 75.7561 47.8067 75.8361 47.7C75.8494 47.6867 75.8694 47.6667 75.8961 47.64C75.9228 47.6 75.9561 47.5667 75.9961 47.54L76.1361 47.38C76.1761 47.34 76.2161 47.3067 76.2561 47.28C76.2961 47.24 76.3294 47.2067 76.3561 47.18C76.4361 47.1267 76.4828 47.0933 76.4961 47.08C77.4294 46.4133 78.7761 46.0867 80.5361 46.1H88.2161C89.9761 46.0867 91.3228 46.4133 92.2561 47.08C92.2828 47.1067 92.3028 47.1267 92.3161 47.14C92.3294 47.14 92.3494 47.1533 92.3761 47.18C92.4828 47.26 92.5561 47.3267 92.5961 47.38C92.6228 47.4067 92.6694 47.46 92.7361 47.54C92.8161 47.62 92.8694 47.6733 92.8961 47.7C92.9361 47.74 92.9694 47.78 92.9961 47.82C93.0228 47.86 93.0494 47.9 93.0761 47.94C93.0894 47.9667 93.1028 47.9867 93.1161 48C93.1294 48.0133 93.1428 48.0333 93.1561 48.06C93.1828 48.1133 93.2094 48.1667 93.2361 48.22C93.2628 48.26 93.2894 48.3067 93.3161 48.36C93.3294 48.3867 93.3361 48.4067 93.3361 48.42C93.3361 48.42 93.3428 48.4333 93.3561 48.46C93.3828 48.5267 93.4028 48.5867 93.4161 48.64C93.4428 48.6933 93.4694 48.7533 93.4961 48.82C93.4961 48.86 93.5028 48.8867 93.5161 48.9C93.5294 48.9667 93.5428 49.0333 93.5561 49.1C93.5694 49.1667 93.5828 49.24 93.5961 49.32C93.6094 49.3333 93.6161 49.3467 93.6161 49.36C93.6294 49.44 93.6361 49.52 93.6361 49.6C93.6494 49.6667 93.6561 49.74 93.6561 49.82Z" fill="white"/>
</svg>
