<svg width="143" height="103" viewBox="0 0 143 103" fill="none" xmlns="http://www.w3.org/2000/svg">
<rect x="1" y="23" width="141" height="57" rx="28.5" stroke="white" stroke-width="2"/>
<path d="M68.78 54.78C68.7933 54.7133 68.8 54.6067 68.8 54.46V52.4C68.7867 52.3333 68.78 52.2733 68.78 52.22C68.78 52.1667 68.7733 52.1133 68.76 52.06C68.76 52.0333 68.7533 52.02 68.74 52.02C68.74 51.9533 68.7333 51.9 68.72 51.86C68.7067 51.8067 68.6933 51.7533 68.68 51.7C68.6667 51.6733 68.66 51.66 68.66 51.66C68.6467 51.5667 68.6133 51.4733 68.56 51.38C68.56 51.3667 68.5533 51.36 68.54 51.36C68.54 51.3467 68.54 51.3267 68.54 51.3C68.5133 51.26 68.4733 51.1867 68.42 51.08C68.4067 51.0533 68.3867 51.0267 68.36 51C68.32 50.92 68.2733 50.8533 68.22 50.8C68.22 50.7867 68.1867 50.7467 68.12 50.68C68.0533 50.6133 68.0133 50.5733 68 50.56C67.9733 50.5333 67.9467 50.5133 67.92 50.5C67.8933 50.4733 67.8667 50.4467 67.84 50.42C67.8133 50.4067 67.7933 50.3933 67.78 50.38C67.78 50.3667 67.7667 50.3533 67.74 50.34C67.06 49.8333 66.0467 49.5933 64.7 49.62V49.6L62.52 49.62H62.02C61.9533 49.6333 61.8867 49.64 61.82 49.64C61.7533 49.64 61.6867 49.6467 61.62 49.66H61.58C61.18 49.7133 60.82 49.7933 60.5 49.9C60.4867 49.9 60.4733 49.9067 60.46 49.92C60.46 49.92 60.4533 49.92 60.44 49.92C60.3867 49.9467 60.34 49.9667 60.3 49.98C60.26 49.9933 60.2133 50.0133 60.16 50.04C60.1467 50.04 60.1333 50.0467 60.12 50.06C60.12 50.06 60.1133 50.06 60.1 50.06C59.9133 50.1667 59.74 50.28 59.58 50.4C59.42 50.5067 59.2867 50.6333 59.18 50.78L59.12 50.84C59.0933 50.8667 59.0667 50.9 59.04 50.94C59.0267 50.98 59.0067 51.0133 58.98 51.04C58.98 51.0533 58.9733 51.0667 58.96 51.08C58.96 51.08 58.96 51.0867 58.96 51.1C58.8267 51.3267 58.72 51.5933 58.64 51.9V51.96C58.6133 52.0933 58.6 52.1933 58.6 52.26C58.6 52.2867 58.5933 52.3133 58.58 52.34V54.7C58.58 54.7667 58.58 54.8267 58.58 54.88C58.5933 54.9333 58.6067 54.9933 58.62 55.06V55.1C58.6467 55.2333 58.6733 55.3333 58.7 55.4C58.7 55.4267 58.7067 55.4467 58.72 55.46C58.7333 55.5133 58.7467 55.56 58.76 55.6C58.7733 55.64 58.7933 55.6867 58.82 55.74C58.82 55.7533 58.82 55.7667 58.82 55.78C58.8333 55.78 58.84 55.7867 58.84 55.8L58.96 56.04C58.9733 56.0533 58.98 56.0667 58.98 56.08C58.9933 56.0933 59.0067 56.1067 59.02 56.12C59.0733 56.2 59.12 56.26 59.16 56.3C59.1733 56.3267 59.1867 56.3467 59.2 56.36C59.2133 56.3733 59.2267 56.3933 59.24 56.42L59.38 56.56C59.4067 56.5867 59.4333 56.6133 59.46 56.64C59.4867 56.6533 59.5133 56.6733 59.54 56.7C59.5667 56.7133 59.58 56.7267 59.58 56.74C59.5933 56.74 59.6133 56.7467 59.64 56.76C60.3067 57.28 61.32 57.5267 62.68 57.5H64.86C64.9267 57.5 64.9933 57.5 65.06 57.5C65.14 57.5 65.2133 57.4933 65.28 57.48H65.36C65.4267 57.48 65.4933 57.48 65.56 57.48C65.6267 57.4667 65.6933 57.46 65.76 57.46C65.76 57.4467 65.7733 57.44 65.8 57.44C66.2 57.4 66.56 57.32 66.88 57.2C66.9067 57.2 66.9267 57.1933 66.94 57.18C66.9933 57.1667 67.0867 57.1333 67.22 57.08C67.2333 57.0667 67.24 57.06 67.24 57.06C67.2533 57.06 67.2667 57.0533 67.28 57.04C67.6533 56.8667 67.96 56.6267 68.2 56.32C68.2267 56.32 68.24 56.3067 68.24 56.28C68.2667 56.24 68.2933 56.2067 68.32 56.18C68.3467 56.14 68.3733 56.1 68.4 56.06C68.4 56.0467 68.4 56.04 68.4 56.04C68.4133 56.04 68.42 56.0333 68.42 56.02C68.5533 55.78 68.6533 55.5067 68.72 55.2C68.7333 55.1867 68.74 55.1667 68.74 55.14C68.7667 55.0333 68.78 54.94 68.78 54.86V54.78ZM73.32 51.38V51.42L73.34 55.28C73.34 55.3867 73.3333 55.4867 73.32 55.58C73.32 55.6733 73.3133 55.7667 73.3 55.86V56.02C73.2867 56.1133 73.2733 56.2067 73.26 56.3C73.26 56.38 73.2467 56.4667 73.22 56.56C73.2067 56.5867 73.2 56.6267 73.2 56.68C73.1867 56.7733 73.1533 56.9 73.1 57.06C73.06 57.2067 73.0067 57.36 72.94 57.52C72.8867 57.68 72.8267 57.8333 72.76 57.98C72.6933 58.1133 72.6267 58.2133 72.56 58.28C72.52 58.3467 72.4733 58.4133 72.42 58.48C72.38 58.5467 72.34 58.6133 72.3 58.68C72.2733 58.7067 72.2533 58.7267 72.24 58.74C72.24 58.7533 72.2333 58.7667 72.22 58.78C71.78 59.3267 71.1933 59.78 70.46 60.14L70.34 60.2C70.2467 60.24 70.1533 60.28 70.06 60.32C69.98 60.3467 69.8933 60.3733 69.8 60.4C69.7467 60.4267 69.7133 60.44 69.7 60.44C69.3933 60.5467 69.0733 60.64 68.74 60.72C68.4067 60.7867 68.0533 60.8467 67.68 60.9H67.58C67.46 60.9267 67.34 60.94 67.22 60.94C67.1 60.94 66.98 60.9467 66.86 60.96C66.8333 60.96 66.8 60.9667 66.76 60.98C66.7333 60.98 66.7067 60.98 66.68 60.98C66.5467 60.98 66.4133 60.9867 66.28 61C66.16 61 66.0267 61 65.88 61H61.78C59.26 61.0267 57.3467 60.5667 56.04 59.62C56.0133 59.5933 55.98 59.5733 55.94 59.56C55.9133 59.5333 55.8867 59.5067 55.86 59.48C55.8067 59.4267 55.7533 59.38 55.7 59.34C55.66 59.3 55.6133 59.2533 55.56 59.2C55.5067 59.16 55.46 59.12 55.42 59.08C55.3933 59.04 55.36 59 55.32 58.96C55.2933 58.92 55.26 58.8867 55.22 58.86C55.1933 58.82 55.1667 58.78 55.14 58.74C55.0867 58.6867 55.04 58.6333 55 58.58C54.96 58.5267 54.92 58.4667 54.88 58.4C54.8533 58.3733 54.8333 58.3467 54.82 58.32C54.82 58.2933 54.8067 58.2667 54.78 58.24C54.7 58.0933 54.6267 57.9467 54.56 57.8C54.5333 57.7467 54.5133 57.7 54.5 57.66C54.46 57.58 54.42 57.5 54.38 57.42C54.3533 57.3267 54.3267 57.24 54.3 57.16C54.3 57.1333 54.2933 57.1133 54.28 57.1C54.28 57.0867 54.28 57.0733 54.28 57.06C54.2533 56.9533 54.2267 56.8533 54.2 56.76C54.1867 56.6667 54.1667 56.5667 54.14 56.46V56.38C54.1133 56.2733 54.0933 56.1667 54.08 56.06C54.08 55.9533 54.0733 55.84 54.06 55.72V55.7L54.04 51.84C54.04 51.7333 54.04 51.6333 54.04 51.54C54.0533 51.4467 54.06 51.3467 54.06 51.24C54.0733 51.2133 54.08 51.1667 54.08 51.1C54.0933 50.9933 54.1 50.9 54.1 50.82C54.1133 50.7267 54.1333 50.6333 54.16 50.54C54.16 50.5267 54.16 50.5133 54.16 50.5C54.1733 50.4867 54.18 50.4667 54.18 50.44C54.3 49.8933 54.4933 49.38 54.76 48.9C54.7867 48.8733 54.8 48.8467 54.8 48.82C54.8533 48.7533 54.9 48.6867 54.94 48.62C54.98 48.5533 55.0267 48.4867 55.08 48.42C55.1067 48.4067 55.1333 48.3733 55.16 48.32C55.3867 48.0533 55.6467 47.8067 55.94 47.58C56.2333 47.3533 56.56 47.1533 56.92 46.98L57.04 46.92C57.1333 46.88 57.22 46.8467 57.3 46.82C57.3933 46.78 57.4867 46.74 57.58 46.7C57.5933 46.7 57.6267 46.6867 57.68 46.66C57.9867 46.5533 58.3067 46.4667 58.64 46.4C58.9733 46.3333 59.3267 46.2733 59.7 46.22H59.8C59.92 46.1933 60.04 46.18 60.16 46.18C60.28 46.1667 60.4 46.1533 60.52 46.14H60.7C60.8333 46.1267 60.96 46.12 61.08 46.12C61.2133 46.12 61.3533 46.12 61.5 46.12H65.6C68.1333 46.08 70.04 46.54 71.32 47.5C71.36 47.5267 71.3933 47.5533 71.42 47.58C71.4467 47.5933 71.4733 47.6133 71.5 47.64C71.5667 47.68 71.62 47.7267 71.66 47.78C71.7133 47.82 71.7667 47.86 71.82 47.9C71.86 47.94 71.9 47.9867 71.94 48.04C71.98 48.08 72.02 48.12 72.06 48.16C72.1 48.2133 72.16 48.28 72.24 48.36C72.2933 48.4267 72.34 48.4867 72.38 48.54C72.42 48.5933 72.46 48.6533 72.5 48.72C72.5133 48.7467 72.5267 48.7733 72.54 48.8C72.5533 48.8267 72.5733 48.8533 72.6 48.88C72.64 48.9467 72.68 49.02 72.72 49.1C72.76 49.1667 72.7933 49.24 72.82 49.32L72.88 49.44C72.96 49.6267 73.02 49.8 73.06 49.96C73.0867 50.0133 73.1 50.0467 73.1 50.06C73.1533 50.2333 73.2 50.4333 73.24 50.66V50.72C73.2667 50.8267 73.28 50.94 73.28 51.06C73.2933 51.1667 73.3067 51.2733 73.32 51.38ZM93.4789 49.82C93.4922 49.82 93.4989 49.8867 93.4989 50.02C93.4989 50.14 93.4989 50.2733 93.4989 50.42C93.4989 50.6067 93.4989 50.8133 93.4989 51.04V51.36C93.4856 51.3867 93.4789 51.42 93.4789 51.46C93.4789 51.5 93.4722 51.5333 93.4589 51.56C93.4589 51.6267 93.4522 51.6933 93.4389 51.76C93.4389 51.8133 93.4322 51.8733 93.4189 51.94C93.4056 51.9667 93.3989 51.9933 93.3989 52.02C93.3189 52.42 93.1789 52.78 92.9789 53.1C92.9789 53.1133 92.9722 53.1267 92.9589 53.14C92.9589 53.14 92.9589 53.1467 92.9589 53.16C92.9322 53.2133 92.8856 53.2667 92.8189 53.32C92.7656 53.36 92.7189 53.4 92.6789 53.44C92.6656 53.4533 92.6456 53.4933 92.6189 53.56L92.6789 53.62C92.7189 53.6733 92.7656 53.72 92.8189 53.76C92.8856 53.8 92.9322 53.8467 92.9589 53.9C92.9589 53.9133 92.9589 53.9267 92.9589 53.94C92.9722 53.94 92.9789 53.9467 92.9789 53.96C93.1789 54.28 93.3189 54.64 93.3989 55.04C93.3989 55.08 93.4056 55.1067 93.4189 55.12C93.4322 55.1867 93.4389 55.2533 93.4389 55.32C93.4522 55.3733 93.4589 55.4333 93.4589 55.5C93.4722 55.5267 93.4789 55.5667 93.4789 55.62C93.4789 55.66 93.4856 55.6933 93.4989 55.72V56.04C93.4989 56.2667 93.4989 56.4667 93.4989 56.64C93.4989 56.7867 93.4989 56.9267 93.4989 57.06C93.4989 57.18 93.4922 57.24 93.4789 57.24C93.4789 57.32 93.4722 57.4 93.4589 57.48C93.4589 57.56 93.4522 57.6333 93.4389 57.7C93.4256 57.7133 93.4189 57.7333 93.4189 57.76C93.4056 57.8267 93.3922 57.9 93.3789 57.98C93.3656 58.0467 93.3456 58.1133 93.3189 58.18C93.3189 58.2067 93.3122 58.2267 93.2989 58.24C93.2722 58.3067 93.2522 58.3733 93.2389 58.44C93.2256 58.4933 93.2056 58.5533 93.1789 58.62C93.1522 58.6467 93.1389 58.6733 93.1389 58.7C93.1122 58.7533 93.0856 58.8067 93.0589 58.86C93.0322 58.9133 93.0056 58.9667 92.9789 59.02C92.9389 59.06 92.9122 59.0933 92.8989 59.12C92.8722 59.16 92.8389 59.2067 92.7989 59.26C92.7722 59.3 92.7456 59.34 92.7189 59.38C92.6922 59.4067 92.6722 59.4333 92.6589 59.46C92.6456 59.4733 92.6256 59.4933 92.5989 59.52L92.4189 59.7C92.3789 59.74 92.3056 59.8 92.1989 59.88L92.0789 60C91.1589 60.6667 89.8122 60.9867 88.0389 60.96H80.3589C78.5722 60.9867 77.2256 60.6667 76.3189 60C76.2789 59.9733 76.2322 59.9333 76.1789 59.88C76.1389 59.84 76.0656 59.78 75.9589 59.7C75.8789 59.62 75.8256 59.56 75.7989 59.52C75.7722 59.4933 75.7456 59.4733 75.7189 59.46C75.7056 59.4333 75.6856 59.4067 75.6589 59.38C75.6322 59.34 75.5989 59.3 75.5589 59.26C75.5322 59.2067 75.5056 59.16 75.4789 59.12C75.4522 59.0667 75.4322 59.0333 75.4189 59.02C75.3522 58.9133 75.2989 58.8067 75.2589 58.7C75.2322 58.6733 75.2189 58.6467 75.2189 58.62C75.1656 58.5267 75.1189 58.4 75.0789 58.24C75.0789 58.2267 75.0722 58.22 75.0589 58.22C75.0589 58.2067 75.0589 58.1933 75.0589 58.18C75.0322 58.1133 75.0122 58.0467 74.9989 57.98C74.9989 57.9 74.9856 57.8267 74.9589 57.76V57.7C74.9456 57.6333 74.9322 57.56 74.9189 57.48C74.9189 57.4 74.9122 57.32 74.8989 57.24V55.92H78.8789V56.34C78.8789 56.38 78.8789 56.42 78.8789 56.46C78.8922 56.4867 78.8989 56.5133 78.8989 56.54V56.56C78.9256 56.64 78.9456 56.7067 78.9589 56.76C78.9722 56.7867 78.9789 56.8133 78.9789 56.84C78.9922 56.8667 79.0056 56.8933 79.0189 56.92V56.96C79.0322 56.9867 79.0456 57.0067 79.0589 57.02C79.0722 57.0333 79.0856 57.0533 79.0989 57.08C79.1122 57.1067 79.1189 57.12 79.1189 57.12C79.1322 57.1467 79.1456 57.1667 79.1589 57.18C79.1722 57.1933 79.1856 57.2133 79.1989 57.24L79.3189 57.36C79.3589 57.4 79.3922 57.4267 79.4189 57.44L79.4589 57.48C79.8456 57.76 80.4056 57.9 81.1389 57.9H87.2389C87.4256 57.9 87.6122 57.8933 87.7989 57.88C87.9989 57.8533 88.1922 57.8133 88.3789 57.76C88.5656 57.7067 88.7389 57.6333 88.8989 57.54C89.0589 57.4333 89.1856 57.2933 89.2789 57.12C89.3856 56.9467 89.4389 56.76 89.4389 56.56C89.4522 56.36 89.4256 56.1667 89.3589 55.98C89.2256 55.6733 89.0189 55.46 88.7389 55.34C88.4589 55.2067 88.1656 55.1267 87.8589 55.1H87.8189C87.7789 55.0867 87.7256 55.08 87.6589 55.08H80.3789V52H87.6589C87.6989 51.9867 87.7522 51.98 87.8189 51.98H87.8589C88.1656 51.94 88.4589 51.86 88.7389 51.74C89.0189 51.6067 89.2256 51.3867 89.3589 51.08C89.4256 50.8933 89.4522 50.7067 89.4389 50.52C89.4389 50.32 89.3856 50.1333 89.2789 49.96C89.1856 49.7867 89.0589 49.6467 88.8989 49.54C88.7389 49.4333 88.5656 49.3533 88.3789 49.3C88.1922 49.2467 87.9989 49.2133 87.7989 49.2C87.6122 49.1867 87.4256 49.18 87.2389 49.18H81.1389C80.4056 49.1533 79.8456 49.2867 79.4589 49.58C79.4589 49.6067 79.4456 49.62 79.4189 49.62C79.3789 49.66 79.3456 49.6867 79.3189 49.7C79.3056 49.7133 79.2922 49.7267 79.2789 49.74C79.2789 49.7533 79.2722 49.7667 79.2589 49.78L79.1989 49.84C79.1856 49.8667 79.1589 49.9 79.1189 49.94C79.1056 49.9667 79.0989 49.98 79.0989 49.98C79.0856 50.0333 79.0589 50.08 79.0189 50.12V50.16C79.0056 50.1867 78.9922 50.2133 78.9789 50.24C78.9789 50.2533 78.9722 50.2733 78.9589 50.3C78.9589 50.3133 78.9522 50.3267 78.9389 50.34C78.9389 50.3667 78.9256 50.42 78.8989 50.5V50.54C78.8989 50.5667 78.8922 50.6 78.8789 50.64C78.8789 50.6667 78.8789 50.6933 78.8789 50.72V51.16H74.8989V49.84L74.9589 49.36V49.32C74.9856 49.24 74.9989 49.1667 74.9989 49.1C75.0122 49.0333 75.0322 48.9667 75.0589 48.9C75.0589 48.8733 75.0589 48.86 75.0589 48.86C75.0722 48.8467 75.0789 48.8333 75.0789 48.82C75.1056 48.7533 75.1256 48.6933 75.1389 48.64C75.1656 48.5867 75.1922 48.5267 75.2189 48.46C75.2189 48.4467 75.2322 48.4133 75.2589 48.36C75.2856 48.3067 75.3122 48.26 75.3389 48.22C75.3656 48.1667 75.3922 48.1133 75.4189 48.06L75.4789 47.94L75.6589 47.7C75.6856 47.6733 75.7056 47.6533 75.7189 47.64C75.7456 47.6133 75.7722 47.5867 75.7989 47.56C75.8522 47.4667 75.9056 47.4067 75.9589 47.38C76.0256 47.3133 76.0856 47.26 76.1389 47.22C76.1922 47.1667 76.2522 47.12 76.3189 47.08C77.2389 46.4133 78.5856 46.0867 80.3589 46.1H88.0389C89.7989 46.0867 91.1456 46.4133 92.0789 47.08C92.1056 47.1067 92.1256 47.1267 92.1389 47.14C92.1522 47.14 92.1722 47.1533 92.1989 47.18C92.3056 47.26 92.3789 47.3267 92.4189 47.38C92.4456 47.4067 92.4922 47.46 92.5589 47.54C92.6389 47.62 92.6922 47.6733 92.7189 47.7L92.8989 47.94C92.9122 47.9667 92.9256 47.9867 92.9389 48C92.9522 48.0133 92.9656 48.0333 92.9789 48.06C93.0056 48.1133 93.0322 48.1667 93.0589 48.22C93.0856 48.26 93.1122 48.3067 93.1389 48.36C93.1389 48.3733 93.1522 48.4067 93.1789 48.46L93.2989 48.82C93.3122 48.8333 93.3189 48.86 93.3189 48.9C93.3722 49.0467 93.4056 49.1867 93.4189 49.32C93.4189 49.3333 93.4256 49.3467 93.4389 49.36C93.4522 49.44 93.4589 49.52 93.4589 49.6C93.4722 49.6667 93.4789 49.74 93.4789 49.82Z" fill="white"/>
</svg>
