<svg width="67" height="67" viewBox="0 0 67 67" fill="none" xmlns="http://www.w3.org/2000/svg">
<circle cx="33.5" cy="33.5" r="33.5" fill="#17181D"/>
<path d="M24.6122 27.3469H31.449C31.8116 27.3469 32.1594 27.491 32.4158 27.7474C32.6722 28.0038 32.8163 28.3516 32.8163 28.7143C32.8163 29.0769 32.6722 29.4247 32.4158 29.6811C32.1594 29.9376 31.8116 30.0816 31.449 30.0816H24.6122C24.2496 30.0816 23.9018 29.9376 23.6454 29.6811C23.3889 29.4247 23.2449 29.0769 23.2449 28.7143C23.2449 28.3516 23.3889 28.0038 23.6454 27.7474C23.9018 27.491 24.2496 27.3469 24.6122 27.3469ZM34.1836 38.2857H41.0204C41.383 38.2857 41.7308 38.4298 41.9872 38.6862C42.2437 38.9426 42.3877 39.2904 42.3877 39.653C42.3877 40.0157 42.2437 40.3635 41.9872 40.6199C41.7308 40.8763 41.383 41.0204 41.0204 41.0204H34.1836C33.821 41.0204 33.4732 40.8763 33.2168 40.6199C32.9604 40.3635 32.8163 40.0157 32.8163 39.653C32.8163 39.2904 32.9604 38.9426 33.2168 38.6862C33.4732 38.4298 33.821 38.2857 34.1836 38.2857ZM24.6122 32.8163H41.0204C41.383 32.8163 41.7308 32.9604 41.9872 33.2168C42.2437 33.4732 42.3877 33.821 42.3877 34.1837C42.3877 34.5463 42.2437 34.8941 41.9872 35.1505C41.7308 35.4069 41.383 35.551 41.0204 35.551H24.6122C24.2496 35.551 23.9018 35.4069 23.6454 35.1505C23.3889 34.8941 23.2449 34.5463 23.2449 34.1837C23.2449 33.821 23.3889 33.4732 23.6454 33.2168C23.9018 32.9604 24.2496 32.8163 24.6122 32.8163Z" fill="#F3F4F9"/>
</svg>
