<svg width="54" height="63" viewBox="0 0 54 63" fill="none" xmlns="http://www.w3.org/2000/svg">
<path fill-rule="evenodd" clip-rule="evenodd" d="M20.8238 3.33473C17.731 5.16629 15.1953 6.79869 15.1893 6.96198C15.1755 7.34835 17.5862 8.85012 28.7476 15.4082C33.8072 18.381 38.7232 21.3068 39.6717 21.9098L41.3965 23.0063V38.6386C41.3965 47.2362 41.5276 54.2708 41.6877 54.2708C41.8477 54.2708 44.5339 52.77 47.6566 50.9361L53.3339 47.6014L53.344 31.5028L53.3546 15.4041L50.9402 14.061C49.6123 13.3219 47.077 11.8537 45.3062 10.7976C30.3745 1.89367 27.1235 -0.0041329 26.8088 6.75103e-06C26.6101 0.00276652 23.9171 1.50362 20.8238 3.33473ZM5.86451 12.2115L0 15.6833V31.5115V47.3392L9.08424 52.7267C14.0803 55.6903 20.0106 59.2159 22.2621 60.5622C24.5136 61.9085 26.5835 63.0055 26.8617 63C27.3663 62.9899 35.6369 58.2242 37.6018 56.8117C38.6137 56.0845 38.6367 55.8697 38.6367 47.1828V38.2982L32.8881 34.9005L27.1396 31.5028L27.1386 24.5274L27.1377 17.5526L19.7967 13.1434C15.7587 10.7185 12.292 8.73559 12.0924 8.73697C11.8923 8.73835 9.09021 10.3018 5.86451 12.2115ZM10.471 22.0689L14.7188 24.5937V31.5869V38.5802L20.6983 42.1343L26.6778 45.6884V52.2792C26.6778 55.9046 26.5508 58.8704 26.3953 58.8704C26.2399 58.8704 23.9111 57.5655 21.2208 55.9708C18.53 54.3762 13.3794 51.3229 9.77418 49.1864L3.22019 45.3016L3.21973 31.6067V17.9118L4.7215 18.7278C5.54759 19.1767 8.13487 20.6799 10.471 22.0689Z" fill="black"/>
</svg>
